<svg width="16" height="16" viewBox="0 0 16 16" fill="none" xmlns="http://www.w3.org/2000/svg">
  <path d="M14.5938 1.90625H5.15625C4.38063 1.90625 3.75 2.53719 3.75 3.3125C3.75 4.08812 4.38063 4.71875 5.15625 4.71875H14.5938C15.3691 4.71875 16 4.08812 16 3.3125C16 2.53719 15.3691 1.90625 14.5938 1.90625Z" fill="white" />
  <path d="M14.5938 6.59375H5.15625C4.38063 6.59375 3.75 7.22469 3.75 8C3.75 8.77562 4.38063 9.40625 5.15625 9.40625H14.5938C15.3691 9.40625 16 8.77562 16 8C16 7.22469 15.3691 6.59375 14.5938 6.59375Z" fill="white" />
  <path d="M14.5938 11.2812H5.15625C4.38063 11.2812 3.75 11.9122 3.75 12.6875C3.75 13.4631 4.38063 14.0938 5.15625 14.0938H14.5938C15.3691 14.0938 16 13.4631 16 12.6875C16 11.9122 15.3691 11.2812 14.5938 11.2812Z" fill="white" />
  <path d="M1.40625 1.90625C0.630625 1.90625 0 2.53719 0 3.3125C0 4.08812 0.630625 4.71875 1.40625 4.71875C2.18156 4.71875 2.8125 4.08812 2.8125 3.3125C2.8125 2.53719 2.18156 1.90625 1.40625 1.90625Z" fill="white" />
  <path d="M1.40625 6.59375C0.630625 6.59375 0 7.22469 0 8C0 8.77562 0.630625 9.40625 1.40625 9.40625C2.18156 9.40625 2.8125 8.77562 2.8125 8C2.8125 7.22469 2.18156 6.59375 1.40625 6.59375Z" fill="white" />
  <path d="M1.40625 11.2812C0.630625 11.2812 0 11.9122 0 12.6875C0 13.4631 0.630625 14.0938 1.40625 14.0938C2.18156 14.0938 2.8125 13.4631 2.8125 12.6875C2.8125 11.9122 2.18156 11.2812 1.40625 11.2812Z" fill="white" />
</svg>